<?xml version="1.0" encoding="UTF-8"?>
<svg version="1.1" xmlns="http://www.w3.org/2000/svg" width="720" height="960">
<path d="M0 0 C237.6 0 475.2 0 720 0 C720 316.8 720 633.6 720 960 C482.4 960 244.8 960 0 960 C0 643.2 0 326.4 0 0 Z " fill="#FEFEFE" transform="translate(0,0)"/>
<path d="M0 0 C237.6 0 475.2 0 720 0 C720 316.8 720 633.6 720 960 C482.4 960 244.8 960 0 960 C0 643.2 0 326.4 0 0 Z M242 100 C242 100.66 242 101.32 242 102 C241.33226562 102.09539062 240.66453125 102.19078125 239.9765625 102.2890625 C236.20992505 103.18870557 232.85511547 104.71899231 229.375 106.375 C228.63499756 106.7265918 227.89499512 107.07818359 227.13256836 107.44042969 C211.62450816 114.95496247 197.16164214 124.22239563 183 134 C181.97616211 134.68884277 181.97616211 134.68884277 180.93164062 135.39160156 C179.25160525 136.54336102 177.62033315 137.76566244 176 139 C176 139.66 176 140.32 176 141 C174.68 141.33 173.36 141.66 172 142 C172 142.66 172 143.32 172 144 C171.44957031 144.24234375 170.89914063 144.4846875 170.33203125 144.734375 C167.4830319 146.2805656 165.17961868 148.17734684 162.6875 150.25 C161.71941406 151.054375 160.75132812 151.85875 159.75390625 152.6875 C158.84511719 153.450625 157.93632812 154.21375 157 155 C156.30777344 155.5775 155.61554688 156.155 154.90234375 156.75 C148.23092083 161.97843861 148.23092083 161.97843861 144 169 C143.34 169 142.68 169 142 169 C140.49153848 170.52620876 140.49153848 170.52620876 139 172.4375 C136.20338983 175.89830508 136.20338983 175.89830508 134 177 C134 177.66 134 178.32 134 179 C132.515 179.495 132.515 179.495 131 180 C129.63636792 181.97946592 128.30581356 183.9819245 127 186 C125.66666667 187.33333333 124.33333333 188.66666667 123 190 C123 190.66 123 191.32 123 192 C122.34 192 121.68 192 121 192 C120.9175 192.61875 120.835 193.2375 120.75 193.875 C120.37875 194.926875 120.37875 194.926875 120 196 C119.38125 196.29132813 118.7625 196.58265625 118.125 196.8828125 C115.56107112 198.2307604 114.72042806 199.53113313 113.25 202 C112.82203125 202.70125 112.3940625 203.4025 111.953125 204.125 C110.84895112 205.94658735 110.84895112 205.94658735 111 208 C110.34 208 109.68 208 109 208 C107.74243424 209.38667985 107.74243424 209.38667985 106.5625 211.1875 C106.15128906 211.77917969 105.74007812 212.37085938 105.31640625 212.98046875 C104.35589935 214.45400604 103.43377452 215.95276874 102.53515625 217.46484375 C101.08218094 219.86428644 99.52272152 222.10639791 97.875 224.375 C63.9074789 272.56148343 42.21495417 334.53947639 34.43701172 392.765625 C34.12844421 395.04936934 33.80003283 397.33047466 33.45751953 399.609375 C30.41292645 420.08137304 29.64330252 440.30741874 29.6875 461 C29.68995728 462.19238281 29.69241455 463.38476562 29.69494629 464.61328125 C29.7706428 485.146136 30.2876813 505.41534513 33.25 525.75 C33.36081909 526.52569336 33.47163818 527.30138672 33.58581543 528.10058594 C37.27528851 553.83364278 43.57351511 578.84028015 50 604 C50.66 604 51.32 604 52 604 C52.103125 604.78375 52.20625 605.5675 52.3125 606.375 C53.9738047 615.13460659 57.14692571 623.57112064 60 632 C60.66 632 61.32 632 62 632 C62.23783203 632.87398437 62.23783203 632.87398437 62.48046875 633.765625 C68.4089583 654.59722365 79.62394015 674.03216409 90.8125 692.4375 C91.72563965 693.94147339 91.72563965 693.94147339 92.65722656 695.47583008 C96.57640618 701.86081824 100.65369401 707.93235696 105.328125 713.79296875 C107 716 107 716 108.109375 718.23828125 C108.87386623 720.18545576 108.87386623 720.18545576 111 721 C111.92535164 722.65925122 112.84841045 724.32088001 113.70703125 726.015625 C115.46607466 728.71530491 117.70581763 730.73859166 120 733 C122.02204618 735.25537246 123.97973193 737.56378085 125.9375 739.875 C126.43701172 740.46152344 126.93652344 741.04804687 127.45117188 741.65234375 C131.64265928 746.57396122 131.64265928 746.57396122 133.57470703 748.87744141 C136.226983 752.01967599 138.85120748 754.96164632 142 757.625 C142.67289062 758.19605469 143.34578125 758.76710938 144.0390625 759.35546875 C144.68617188 759.89816406 145.33328125 760.44085937 146 761 C146.58523437 761.51175781 147.17046875 762.02351562 147.7734375 762.55078125 C150.49296122 765.18188372 150.49296122 765.18188372 154 766 C154 766.66 154 767.32 154 768 C156.46244782 770.54711651 159.28162557 772.73185634 162 775 C163.423125 776.21816406 163.423125 776.21816406 164.875 777.4609375 C165.844375 778.27820313 166.81375 779.09546875 167.8125 779.9375 C168.72644531 780.70964844 169.64039063 781.48179687 170.58203125 782.27734375 C172.91241238 784.29012103 172.91241238 784.29012103 176 784 C176 784.66 176 785.32 176 786 C177.87123895 787.48696966 177.87123895 787.48696966 180.3203125 788.9765625 C181.24191162 789.56131348 182.16351074 790.14606445 183.11303711 790.74853516 C184.60395874 791.67738525 184.60395874 791.67738525 186.125 792.625 C187.12732666 793.25583496 188.12965332 793.88666992 189.16235352 794.53662109 C196.66601124 799.2334198 204.25922895 803.70748307 212 808 C213.70349609 809.00160156 213.70349609 809.00160156 215.44140625 810.0234375 C218.84990931 811.97630374 222.36754526 813.49955081 226 815 C227.83045826 815.81551161 229.66090301 816.63105454 231.49072266 817.44799805 C243.52366394 822.79144489 255.64329889 827.5635384 268.3671875 831.0078125 C270.86346702 831.68959207 273.34780164 832.41619233 275.8203125 833.1796875 C326.10416324 848.53417755 388.75853616 849.8833 440 838 C440 837.34 440 836.68 440 836 C441.11375 836.061875 442.2275 836.12375 443.375 836.1875 C453.23161136 836.13598461 462.73294443 831.32469763 471.80859375 827.83691406 C474.0241535 826.9907756 476.24575187 826.16231289 478.46875 825.3359375 C486.85601548 822.18551049 494.93465142 818.73875205 502.875 814.57666016 C505.87571254 813.00960395 508.64539494 811.59000592 512 811 C512 810.34 512 809.68 512 809 C513.093125 808.71125 514.18625 808.4225 515.3125 808.125 C519.04013845 807.18106796 519.04013845 807.18106796 522 805 C522 804.34 522 803.68 522 803 C522.9075 802.71125 523.815 802.4225 524.75 802.125 C527.32202908 801.23468224 529.61346766 800.28505587 532 799 C532 798.34 532 797.68 532 797 C533.32 796.67 534.64 796.34 536 796 C536 795.34 536 794.68 536 794 C537.04220703 793.65195313 537.04220703 793.65195313 538.10546875 793.296875 C541.57753432 791.74123969 544.36235209 789.60698496 547.3125 787.25 C548.45788744 786.3483916 549.60372033 785.44734878 550.75 784.546875 C551.30300781 784.11052734 551.85601563 783.67417969 552.42578125 783.22460938 C555.12796504 781.12253837 557.91495522 779.13660908 560.70703125 777.15625 C561.13371094 776.7746875 561.56039062 776.393125 562 776 C562 775.34 562 774.68 562 774 C562.57878906 773.73832031 563.15757812 773.47664062 563.75390625 773.20703125 C571.57419168 769.00447786 577.87860028 761.3745489 583.5390625 754.6796875 C585.57691986 752.33669641 587.80454027 750.19545973 590 748 C595.4121712 742.24211742 600.24136503 736.16102165 604.921875 729.796875 C606.32004797 727.9151234 607.76990145 726.07080859 609.265625 724.265625 C611.20261885 722.21086165 611.20261885 722.21086165 611 720 C611.66 720 612.32 720 613 720 C614.285793 718.15582272 615.47674818 716.24531433 616.625 714.3125 C617.34353137 713.11445218 618.0622877 711.91653926 618.78125 710.71875 C619.14863281 710.10128906 619.51601563 709.48382812 619.89453125 708.84765625 C621.60788967 705.98398652 623.36853268 703.14987028 625.125 700.3125 C626.41702817 698.20855529 627.70872188 696.10440513 629 694 C629.51304687 693.17113281 630.02609375 692.34226562 630.5546875 691.48828125 C633.64857308 686.42936024 636.5472719 681.27363448 639.375 676.0625 C639.73335937 675.41104004 640.09171875 674.75958008 640.4609375 674.08837891 C642.01452657 671.18981257 643 669.33962896 643 666 C643.66 666 644.32 666 645 666 C645.30292969 665.27296875 645.60585938 664.5459375 645.91796875 663.796875 C646.54638672 662.28867188 646.54638672 662.28867188 647.1875 660.75 C647.87199219 659.10644531 647.87199219 659.10644531 648.5703125 657.4296875 C649.48027511 655.24677173 650.39158498 653.06441673 651.3046875 650.8828125 C665.43854789 617.91900461 665.43854789 617.91900461 674.296875 583.32421875 C675 580 675 580 676.41967773 576.35961914 C678.09776448 571.95216088 679.10152389 567.54598724 679.98828125 562.921875 C680.15644852 562.06180847 680.32461578 561.20174194 680.49787903 560.31561279 C682.45552465 550.01701398 683.82744078 539.64102848 685.1875 529.25 C685.44928295 527.28898407 685.71165086 525.32804614 685.97460938 523.3671875 C686.65917542 518.24599483 687.33562454 513.12385032 688 508 C688.09563736 507.27824585 688.19127472 506.5564917 688.28981018 505.81286621 C692.7712896 471.33191383 691.21391098 434.42322714 687 400 C686.79987305 398.34774414 686.79987305 398.34774414 686.59570312 396.66210938 C685.06895879 384.30383557 683.15571607 372.18082157 680 360.125 C678.28778422 353.46673603 676.98010268 346.80913443 676 340 C675.34 340 674.68 340 674 340 C674.13148438 338.67355469 674.13148438 338.67355469 674.265625 337.3203125 C674.2595001 331.22297121 671.74506881 325.55375386 669.75 319.875 C668.95160034 317.56042119 668.15472087 315.24531744 667.359375 312.9296875 C666.76576172 311.21168945 666.76576172 311.21168945 666.16015625 309.45898438 C665.01324514 306.03949015 663.95692131 302.60325425 662.921875 299.1484375 C661.41248101 294.18007831 659.6685389 289.46384149 657.5 284.75 C657.19594238 284.07308105 656.89188477 283.39616211 656.57861328 282.69873047 C655.9853627 281.37888254 655.3893358 280.06027766 654.79003906 278.74316406 C653.79480774 276.54725811 652.83599299 274.33606518 651.875 272.125 C650.10117716 268.1338986 648.14191558 264.24475266 646.1484375 260.359375 C645 258 645 258 644.1171875 255.71484375 C642.56784002 251.94982102 640.66410566 248.40303527 638.75 244.8125 C638.35103516 244.060896 637.95207031 243.30929199 637.54101562 242.53491211 C634.86568481 237.52943709 632.0763996 232.61539158 629.09375 227.78515625 C628 226 628 226 627 224 C626.34 224 625.68 224 625 224 C624.814375 223.21625 624.62875 222.4325 624.4375 221.625 C622.40605823 216.50223381 619.23354639 212.4330878 616 208 C614.76674027 206.25288205 613.53745396 204.50295136 612.3125 202.75 C611.73757813 201.93273437 611.16265625 201.11546875 610.5703125 200.2734375 C609.22934645 198.33203889 607.95029963 196.36741719 606.6875 194.375 C605.8521875 193.199375 605.8521875 193.199375 605 192 C604.34 192 603.68 192 603 192 C602.75894531 191.45214844 602.51789062 190.90429688 602.26953125 190.33984375 C600.70272804 187.45210492 598.77838399 185.09615943 596.6875 182.5625 C595.54861328 181.17224609 595.54861328 181.17224609 594.38671875 179.75390625 C592.03060952 177.03531868 589.57301953 174.51299574 587 172 C581.62910928 166.70682314 576.37520103 161.39918204 571.453125 155.68359375 C568.24139891 151.962481 565.22540879 149.49190775 561 147 C559.97980427 146.0206121 558.97850195 145.02104551 558 144 C555.33128598 141.62256578 555.33128598 141.62256578 552 141 C552 140.34 552 139.68 552 139 C549.74185152 137.20173555 547.48722261 135.5253199 545.125 133.875 C544.47402344 133.40707031 543.82304688 132.93914062 543.15234375 132.45703125 C539.89337701 129.8870878 539.89337701 129.8870878 536 129 C536 128.34 536 127.68 536 127 C535.05125 126.484375 534.1025 125.96875 533.125 125.4375 C529.99458625 123.66128938 527.10273665 121.67178655 524.1875 119.5625 C516.24010999 113.61211746 516.24010999 113.61211746 507 111 C507 110.34 507 109.68 507 109 C506.46632813 108.76925781 505.93265625 108.53851563 505.3828125 108.30078125 C501.32866679 106.52621574 497.35680564 104.68113827 493.4375 102.625 C487.19182549 99.46837625 480.64452585 97.15202543 474.07910156 94.76611328 C472.08290923 94.03055063 470.09903007 93.26938514 468.1171875 92.49609375 C452.01668008 86.23750614 435.60978424 81.3396041 418.56640625 78.43798828 C416.89482416 78.15271257 415.22532969 77.85482678 413.55859375 77.54248047 C355.50276063 66.88127657 296.16938233 79.24547338 242 100 Z " fill="#FEFEFE" transform="translate(0,0)"/>
<path d="M0 0 C0 0.66 0 1.32 0 2 C0.94875 2.309375 1.8975 2.61875 2.875 2.9375 C6 4 6 4 8 5 C8 5.66 8 6.32 8 7 C8.680625 7.20625 9.36125 7.4125 10.0625 7.625 C13.99911593 9.46767128 16.7928323 12.10556442 20 15 C21.31231397 16.125217 22.62481833 17.25021198 23.9375 18.375 C30.06614465 23.77913433 35.80286811 28.92756778 39.796875 36.140625 C40.98250877 38.11872399 40.98250877 38.11872399 42.921875 39.90234375 C48.42105115 45.45320389 52.33370186 53.13233282 56 60 C56.50015625 60.92425781 57.0003125 61.84851563 57.515625 62.80078125 C65.88893064 78.84961706 71.6732052 95.5359853 75.41015625 113.22851562 C76.03034231 116.14256868 76.68550598 119.04744782 77.34375 121.953125 C77.79319542 123.98924649 78.24114322 126.0256992 78.6875 128.0625 C78.99143677 129.40598511 78.99143677 129.40598511 79.30151367 130.77661133 C82.82394381 147.38067397 83.41363346 164.33171745 83.375 181.25 C83.37412384 182.199888 83.37324768 183.149776 83.37234497 184.12844849 C83.26622711 219.31661722 78.07609093 255.4956006 64 288 C63.62691369 289.32276056 63.26953585 290.65232077 63 292 C62.34 292 61.68 292 61 292 C60.90976562 292.66902344 60.81953125 293.33804687 60.7265625 294.02734375 C59.79976733 297.81923152 58.14688589 301.11103111 56.375 304.5625 C56.0130957 305.27212891 55.65119141 305.98175781 55.27832031 306.71289062 C47.70758986 321.42970056 38.40791295 337.70657025 26 349 C25.34 349 24.68 349 24 349 C24 349.66 24 350.32 24 351 C22.3203125 352.7265625 22.3203125 352.7265625 20.125 354.625 C19.04605469 355.57246094 19.04605469 355.57246094 17.9453125 356.5390625 C16 358 16 358 14 358 C14 358.66 14 359.32 14 360 C7.24288522 365.68538671 -0.44378711 370.45227928 -8 375 C-8.6290625 375.37898438 -9.258125 375.75796875 -9.90625 376.1484375 C-33.58295165 389.12908533 -70.35984403 390.28842486 -96 383 C-96.97912354 382.72663818 -96.97912354 382.72663818 -97.97802734 382.44775391 C-102.70431439 381.10999898 -107.35623272 379.59841572 -112 378 C-113.134375 377.61972656 -114.26875 377.23945312 -115.4375 376.84765625 C-123.66096513 373.91211642 -130.72399484 369.7905901 -138 365 C-139.22009766 364.22462891 -139.22009766 364.22462891 -140.46484375 363.43359375 C-147.41327477 358.9519168 -154.24572872 353.96322526 -160 348 C-160.48855469 347.52046875 -160.97710937 347.0409375 -161.48046875 346.546875 C-164.47069399 343.50284108 -167.20794291 340.22479629 -170 337 C-170.55558594 336.360625 -171.11117187 335.72125 -171.68359375 335.0625 C-179 326.59663342 -179 326.59663342 -179 324 C-179.66 324 -180.32 324 -181 324 C-182.23339844 322.35449219 -182.23339844 322.35449219 -183.609375 320.046875 C-184.11364014 319.20672852 -184.61790527 318.36658203 -185.13745117 317.50097656 C-185.66959229 316.5931543 -186.2017334 315.68533203 -186.75 314.75 C-187.29567627 313.82413086 -187.84135254 312.89826172 -188.40356445 311.94433594 C-198.68886261 294.36868056 -206.69814843 275.60029336 -211.171875 255.671875 C-211.71825911 253.24922848 -212.33196718 250.84066845 -213.015625 248.453125 C-218.82512416 227.9031056 -219.27938556 206.64416948 -219.3125 185.4375 C-219.31608521 184.5144104 -219.31967041 183.5913208 -219.32336426 182.64025879 C-219.42897721 132.11457538 -206.23906005 71.77488259 -169.50390625 34.46484375 C-168.67761719 33.65144531 -167.85132813 32.83804688 -167 32 C-165.55265883 30.38375905 -164.11506251 28.75873698 -162.6875 27.125 C-154.50102014 18.02742254 -144.96355752 11.0241388 -135 4 C-134.19046875 3.41992188 -133.3809375 2.83984375 -132.546875 2.2421875 C-94.75558756 -22.63481107 -38.93730905 -21.0910424 0 0 Z " fill="#FEFEFE" transform="translate(424,276)"/>
<path d="M0 0 C0.97646484 0.17692383 1.95292969 0.35384766 2.95898438 0.53613281 C19.98643594 3.65406275 37.00746046 7.63836175 52.890625 14.66015625 C56.07375363 16.03178077 59.28869259 17.26403705 62.53051758 18.48803711 C70.36439182 21.45174274 77.85097295 24.74331454 85.27734375 28.6171875 C87.98708106 30.0777204 87.98708106 30.0777204 91 31 C91 31.66 91 32.32 91 33 C91.53367187 33.13535156 92.06734375 33.27070312 92.6171875 33.41015625 C99.39939917 35.3697226 104.40276148 38.78125493 110 43 C114.6914538 46.55090773 114.6914538 46.55090773 120 49 C120 49.66 120 50.32 120 51 C120.70511719 51.2475 121.41023438 51.495 122.13671875 51.75 C125.36887443 53.16103659 127.96328902 54.9250726 130.8125 57 C132.27623047 58.051875 132.27623047 58.051875 133.76953125 59.125 C134.87361328 60.053125 134.87361328 60.053125 136 61 C136 61.66 136 62.32 136 63 C136.5775 63.28875 137.155 63.5775 137.75 63.875 C138.4925 64.24625 139.235 64.6175 140 65 C140.680625 65.28875 141.36125 65.5775 142.0625 65.875 C144.38551688 67.22384851 145.41344871 68.86160478 147 71 C147.99 71.33 148.98 71.66 150 72 C151.6484375 73.671875 151.6484375 73.671875 153.375 75.75 C156.10054997 79.01070362 158.96943996 82.01934439 162 85 C173.37437182 96.22338459 173.37437182 96.22338459 178.36328125 102.08203125 C179.54912392 103.47164641 180.75799433 104.84171757 181.98046875 106.19921875 C182.62628906 106.91722656 183.27210938 107.63523437 183.9375 108.375 C184.81728516 109.34566406 184.81728516 109.34566406 185.71484375 110.3359375 C187 112 187 112 187 114 C187.66 114 188.32 114 189 114 C190.23830358 115.65714156 191.38848228 117.38028161 192.5 119.125 C194.82158239 122.71367314 197.15416164 126.25477598 199.6796875 129.703125 C200.12763672 130.31526855 200.57558594 130.92741211 201.03710938 131.55810547 C201.91017004 132.74374734 202.78884111 133.92528421 203.67382812 135.10205078 C206.24149027 138.60647962 207.84856284 141.8118055 209 146 C209.66 146 210.32 146 211 146 C211.54527344 147.01707031 211.54527344 147.01707031 212.1015625 148.0546875 C215.09829511 153.60248479 218.18515676 159.05854382 221.5078125 164.41796875 C223.11262945 167.19489022 224.54152855 170.02597706 225.96044922 172.90112305 C226.95497871 174.90910098 227.97290385 176.90305277 229 178.89453125 C232.43118733 185.59403844 235.59789171 192.16672127 238.01171875 199.3125 C239.1380924 202.37552401 240.51569692 205.2503068 241.9375 208.1875 C245.12106227 214.94657065 247.25947948 221.82871853 249.38232422 228.96826172 C250.39910174 232.31277654 251.51086032 235.62440043 252.625 238.9375 C253.03363281 240.16339844 253.44226563 241.38929688 253.86328125 242.65234375 C254.5491435 244.67221986 255.25031361 246.68711585 255.98046875 248.69140625 C257.66359142 253.361479 258.31739117 257.02753836 258 262 C258.66 262 259.32 262 260 262 C260.09796875 262.680625 260.1959375 263.36125 260.296875 264.0625 C261.19632779 269.89343531 262.3597556 275.54695413 263.875 281.25 C269.02525474 301.11630406 271.06897723 321.61698187 273 342 C273.09861328 342.93263672 273.19722656 343.86527344 273.29882812 344.82617188 C274.21688983 354.20863227 274.15733396 363.58287286 274.125 373 C274.12245209 373.88493134 274.11990417 374.76986267 274.11727905 375.68161011 C274.09939774 381.00133182 274.06570849 386.32077081 274.01959229 391.64031982 C274.00209792 393.74732807 273.98971441 395.85437732 273.97802734 397.96142578 C273.85576216 412.86327249 272.51974529 427.48439712 270.625 442.25 C270.46748764 443.47772629 270.46748764 443.47772629 270.30679321 444.73025513 C268.8959629 455.56782954 267.09356634 466.27409712 265 477 C264.63100249 479.00463798 264.26480207 481.00979436 263.90234375 483.015625 C263.58079759 484.76042928 263.25918529 486.50522137 262.9375 488.25 C262.77701172 489.14589844 262.61652344 490.04179688 262.45117188 490.96484375 C262.29068359 491.82722656 262.13019531 492.68960937 261.96484375 493.578125 C261.8268335 494.33512695 261.68882324 495.09212891 261.54663086 495.87207031 C260.96820382 498.12377648 260.05232499 499.93431539 259 502 C258.41548437 504.58112842 257.88274769 507.15408277 257.375 509.75 C255.75622282 517.51365535 253.52418474 524.98457514 251 532.5 C250.66790527 533.48967773 250.33581055 534.47935547 249.99365234 535.49902344 C247.85700224 541.75043116 245.49946071 547.88580243 243 554 C242.35273057 555.62442851 241.70673315 557.24936494 241.0625 558.875 C238.76900454 564.60873864 236.38423314 570.30353879 234 576 C233.06213611 578.24984835 232.12462405 580.49984339 231.1875 582.75 C230.45833333 584.5 229.72916667 586.25 229 588 C228.34 588 227.68 588 227 588 C226.90332031 588.515625 226.80664062 589.03125 226.70703125 589.5625 C225.74058109 592.89435028 224.23656682 595.90950663 222.6875 599 C222.34211182 599.68916504 221.99672363 600.37833008 221.64086914 601.08837891 C215.4361858 613.22311868 208.41039487 625.15608256 200.3046875 636.125 C198.99028425 638.01396275 197.97556403 639.91879673 197 642 C196.34 642 195.68 642 195 642 C194.75507812 642.54398438 194.51015625 643.08796875 194.2578125 643.6484375 C192.71412937 646.53445379 190.85108673 649.01546386 188.875 651.625 C188.47829102 652.14916504 188.08158203 652.67333008 187.67285156 653.21337891 C183.87130849 658.21405629 179.96533582 663.12830171 176 668 C175.52691406 668.58652344 175.05382812 669.17304687 174.56640625 669.77734375 C171.22780024 673.86479596 167.75348372 677.65116637 163.5625 680.875 C161.42686755 682.64601227 159.87424521 684.25920208 158.125 686.375 C155.11932719 689.98025003 151.85068269 693.2906279 148 696 C147.34 696 146.68 696 146 696 C146 696.66 146 697.32 146 698 C144.55859375 699.33984375 144.55859375 699.33984375 142.4375 700.9375 C141.63054688 701.5459375 140.82359375 702.154375 139.9921875 702.78125 C139.00476563 703.5134375 138.01734375 704.245625 137 705 C135.71089038 705.96868729 134.42183105 706.93744152 133.1328125 707.90625 C131.77664284 708.91747342 130.41987077 709.92788941 129.0625 710.9375 C128.39984131 711.43435303 127.73718262 711.93120605 127.05444336 712.44311523 C122.23048445 716 122.23048445 716 120 716 C120 716.66 120 717.32 120 718 C118.68 718.33 117.36 718.66 116 719 C116 719.66 116 720.32 116 721 C114.71086513 721.67154933 113.41859796 722.33708859 112.125 723 C111.40570312 723.37125 110.68640625 723.7425 109.9453125 724.125 C108 725 108 725 106 725 C106 725.66 106 726.32 106 727 C104.71086513 727.67154933 103.41859796 728.33708859 102.125 729 C101.40570312 729.37125 100.68640625 729.7425 99.9453125 730.125 C98 731 98 731 96 731 C96 731.66 96 732.32 96 733 C95.44054687 733.20753906 94.88109375 733.41507813 94.3046875 733.62890625 C89.2322269 735.57797069 84.43513113 737.78205187 79.625 740.3125 C71.47174018 744.54376465 62.85077267 747.32044487 54.16699219 750.24951172 C51.53147218 751.16226391 48.95096389 752.18142192 46.375 753.25 C38.852261 756.32266804 32.18219087 758.45456616 24 758 C24 758.66 24 759.32 24 760 C-30.60898915 770.05261938 -90.56754079 770.45763631 -144 754 C-146.29147125 753.3950926 -148.58313182 752.79090178 -150.875 752.1875 C-160.18596229 749.51950965 -169.0698981 745.7165093 -178 742 C-179.27602382 741.47651901 -180.55206378 740.95307732 -181.828125 740.4296875 C-201.91277652 732.03815502 -222.88322591 721.56817459 -240 708 C-240 707.34 -240 706.68 -240 706 C-240.5969165 705.88374268 -241.19383301 705.76748535 -241.80883789 705.64770508 C-245.32098268 704.60951899 -247.74206819 702.06872148 -250.4375 699.6875 C-251.56069065 698.71165542 -252.68438131 697.73638601 -253.80859375 696.76171875 C-254.34468262 696.29169434 -254.88077148 695.82166992 -255.43310547 695.33740234 C-256.88456033 694.09853202 -258.39557194 692.93037372 -259.91015625 691.76953125 C-260.59980469 691.18558594 -261.28945313 690.60164062 -262 690 C-262 689.34 -262 688.68 -262 688 C-262.7321875 687.75894531 -263.464375 687.51789062 -264.21875 687.26953125 C-267.37288375 685.82979323 -269.11356278 684.18737702 -271.5 681.6875 C-272.67175781 680.47513672 -272.67175781 680.47513672 -273.8671875 679.23828125 C-274.57101562 678.49964844 -275.27484375 677.76101563 -276 677 C-276.86625 676.13375 -277.7325 675.2675 -278.625 674.375 C-279.40875 673.59125 -280.1925 672.8075 -281 672 C-281.4846875 671.55011719 -281.969375 671.10023438 -282.46875 670.63671875 C-287.16886735 666.16939023 -291.08584192 661.21095937 -295.00439453 656.06274414 C-297.15065611 653.26186889 -299.25362558 650.74923218 -301.7734375 648.2578125 C-304 646 -304 646 -305 643 C-305.98966872 641.98977437 -306.99184665 640.99177963 -308 640 C-313.45625626 632.67865402 -318.36424702 624.95821198 -323.25 617.25 C-323.74491943 616.47076172 -324.23983887 615.69152344 -324.74975586 614.88867188 C-329.92816698 606.65610295 -334.50344705 598.11794981 -339.04443359 589.52319336 C-340.83124836 586.15270616 -342.67395069 582.84152158 -344.625 579.5625 C-348.92450919 571.91405338 -352.59195373 562.64942709 -354 554 C-354.66 554 -355.32 554 -356 554 C-356.94948188 551.15155437 -357.89832056 548.30291946 -358.84375 545.453125 C-359.60204979 543.18847294 -360.37248711 540.92784115 -361.15625 538.671875 C-361.5171875 537.62515625 -361.878125 536.5784375 -362.25 535.5 C-362.58515625 534.5409375 -362.9203125 533.581875 -363.265625 532.59375 C-364 530 -364 530 -364 526 C-364.66 526 -365.32 526 -366 526 C-367.2299875 521.1301906 -368.45662746 516.25955351 -369.68041992 511.38818359 C-370.09555818 509.73757206 -370.51154712 508.08717419 -370.9284668 506.43701172 C-374.98209486 490.38835188 -378.46154155 474.36342639 -381 458 C-381.16677246 456.93845703 -381.33354492 455.87691406 -381.50537109 454.78320312 C-382.05788229 451.23227738 -382.59335358 447.67910571 -383.125 444.125 C-383.29572021 443.02784668 -383.46644043 441.93069336 -383.64233398 440.80029297 C-386.43547464 421.69459912 -386.27279288 402.26771511 -386.3125 383 C-386.31511841 381.77410156 -386.31773682 380.54820312 -386.32043457 379.28515625 C-386.32515105 358.56498127 -385.06752873 338.47617184 -382 318 C-381.72963893 315.9638236 -381.46124162 313.92738496 -381.1953125 311.890625 C-376.89173162 281.07951895 -368.54289293 248.49717707 -356 220 C-355.05672757 217.62728671 -354.1193862 215.25220831 -353.1875 212.875 C-349.24093918 202.9397483 -344.69398363 193.32009883 -339.9375 183.75 C-339.62119629 183.11263916 -339.30489258 182.47527832 -338.97900391 181.81860352 C-334.27525251 172.44368186 -328.9334854 163.51640536 -323.375 154.625 C-322.70726562 153.54605469 -322.03953125 152.46710938 -321.3515625 151.35546875 C-320.70703125 150.32292969 -320.0625 149.29039062 -319.3984375 148.2265625 C-318.81755371 147.29408691 -318.23666992 146.36161133 -317.63818359 145.40087891 C-316.21683193 143.31778319 -314.78481036 141.75326546 -313 140 C-311.98308736 138.00854609 -310.98357352 136.00812926 -310 134 C-308.4375 131.625 -308.4375 131.625 -307 130 C-306.34 130 -305.68 130 -305 130 C-304.773125 129.319375 -304.54625 128.63875 -304.3125 127.9375 C-302.68773854 124.3011291 -300.67196743 120.97170737 -298 118 C-297.34 118 -296.68 118 -296 118 C-295.505 116.02 -295.505 116.02 -295 114 C-294.34 114 -293.68 114 -293 114 C-292.773125 113.46375 -292.54625 112.9275 -292.3125 112.375 C-290.58168411 109.24304744 -288.31514283 106.72029283 -286 104 C-285.01 102.515 -285.01 102.515 -284 101 C-283.34 101 -282.68 101 -282 101 C-282 100.34 -282 99.68 -282 99 C-280.50390625 97.5625 -280.50390625 97.5625 -278.5625 96 C-275.84811762 93.85474956 -275.84811762 93.85474956 -274 91 C-273.34 91 -272.68 91 -272 91 C-271.505 89.515 -271.505 89.515 -271 88 C-269.609375 86.59765625 -269.609375 86.59765625 -267.75 85.0625 C-263.22570006 81.23487668 -258.89374476 77.22591843 -254.56933594 73.17602539 C-246.85869025 66 -246.85869025 66 -244 66 C-244 65.34 -244 64.68 -244 64 C-242.68 63.67 -241.36 63.34 -240 63 C-240 62.34 -240 61.68 -240 61 C-237.65936885 59.22172828 -235.31694235 57.56666486 -232.875 55.9375 C-231.790979 55.20430542 -231.790979 55.20430542 -230.68505859 54.45629883 C-223.86045164 49.86002832 -216.96551782 45.37931071 -210 41 C-209.1646875 40.46890625 -208.329375 39.9378125 -207.46875 39.390625 C-200.50517221 35.07320677 -193.18096984 31.47898751 -185.81835938 27.90087891 C-184.11571169 27.05732763 -182.43936977 26.16125549 -180.765625 25.26171875 C-178 24 -178 24 -174 24 C-174 23.34 -174 22.68 -174 22 C-163.0934251 17.66485511 -152.18679017 13.56393315 -141 10 C-139.28296875 9.443125 -139.28296875 9.443125 -137.53125 8.875 C-131.98668778 7.11317649 -126.5118491 5.55779877 -120.78442383 4.52783203 C-117.69068153 3.94136374 -114.62465094 3.26105914 -111.55078125 2.578125 C-75.85843046 -5.06080266 -35.94795221 -6.89869758 0 0 Z M-165.43359375 41.80078125 C-167.6494644 42.83620331 -169.61285883 43.52031442 -172 44 C-172 44.66 -172 45.32 -172 46 C-172.85851562 46.10183594 -173.71703125 46.20367187 -174.6015625 46.30859375 C-178.28495755 47.05797412 -181.05023208 48.32623231 -184.375 50.0625 C-185.43460938 50.61035156 -186.49421875 51.15820312 -187.5859375 51.72265625 C-188.38257813 52.14417969 -189.17921875 52.56570312 -190 53 C-190 53.66 -190 54.32 -190 55 C-190.88300781 55.10054687 -191.76601562 55.20109375 -192.67578125 55.3046875 C-196.20687311 56.04327076 -198.21595716 57.1199953 -201.1875 59.125 C-202.14398438 59.76050781 -203.10046875 60.39601562 -204.0859375 61.05078125 C-205.52839844 62.01564453 -205.52839844 62.01564453 -207 63 C-208.76878913 64.10743836 -210.53961177 65.21163577 -212.3125 66.3125 C-216.84831186 69.20490177 -221.2865021 72.22028286 -225.6875 75.3125 C-226.31245361 75.7453833 -226.93740723 76.1782666 -227.58129883 76.62426758 C-229.0920131 77.69821 -230.55159768 78.8433926 -232 80 C-232 80.66 -232 81.32 -232 82 C-232.56203125 82.2578125 -233.1240625 82.515625 -233.703125 82.78125 C-236.26704579 84.14169777 -238.45226365 85.72788962 -240.75 87.5 C-241.54921875 88.1084375 -242.3484375 88.716875 -243.171875 89.34375 C-244.07679688 90.16359375 -244.07679688 90.16359375 -245 91 C-245 91.66 -245 92.32 -245 93 C-245.56678467 93.24153809 -246.13356934 93.48307617 -246.7175293 93.73193359 C-249.45328617 95.25183104 -251.3121634 97.0699521 -253.51953125 99.2890625 C-254.37740234 100.14886719 -255.23527344 101.00867188 -256.11914062 101.89453125 C-257.00794922 102.79558594 -257.89675781 103.69664062 -258.8125 104.625 C-259.68970703 105.50285156 -260.56691406 106.38070312 -261.47070312 107.28515625 C-266.51423999 112.36264362 -271.37441352 117.53892696 -276 123 C-276.804375 123.94875 -277.60875 124.8975 -278.4375 125.875 C-280.19746348 127.82894726 -280.19746348 127.82894726 -280 130 C-281.485 130.495 -281.485 130.495 -283 131 C-284.66626361 132.94038808 -284.66626361 132.94038808 -286.25 135.375 C-286.85457031 136.26960938 -287.45914063 137.16421875 -288.08203125 138.0859375 C-288.71496094 139.04757813 -289.34789062 140.00921875 -290 141 C-290.66386719 142.00289063 -291.32773437 143.00578125 -292.01171875 144.0390625 C-295.50710896 148.67302662 -295.50710896 148.67302662 -297 154 C-297.99 154.33 -298.98 154.66 -300 155 C-304.91645988 161.88304384 -308.5308163 169.85505908 -312.15893555 177.47875977 C-313.61215425 180.48002935 -314.97101315 182.96416072 -317.08203125 185.57421875 C-319.30857989 188.39028129 -320.31208466 190.99586245 -321.5 194.375 C-323.03031034 198.55069438 -324.63381334 202.22087586 -326.97265625 206.015625 C-329.00678358 209.94466183 -330.27224656 214.20942736 -331.71484375 218.3828125 C-332.87990373 221.66197827 -334.14441103 224.85838061 -335.5 228.0625 C-339.16622945 236.7626119 -342.67664786 245.26463848 -344.90234375 254.46484375 C-345.24916175 255.88446246 -345.59675589 257.30389175 -345.94506836 258.72314453 C-346.11988739 259.4370636 -346.29470642 260.15098267 -346.474823 260.88653564 C-347.28271828 264.13774026 -348.14268333 267.37481018 -349 270.61328125 C-353.17799954 286.59009934 -356.5409998 302.38558281 -358.59863281 318.79931641 C-359.0023522 322.01875752 -359.43234761 325.23384651 -359.8671875 328.44921875 C-360.1420893 330.52845276 -360.41558711 332.607873 -360.6875 334.6875 C-360.86696167 336.0477832 -360.86696167 336.0477832 -361.05004883 337.43554688 C-363.00964735 353.157808 -363.27432222 368.92624745 -363.3125 384.75 C-363.31511841 385.7978064 -363.31773682 386.84561279 -363.32043457 387.9251709 C-363.3254595 406.85121245 -361.93411128 425.27737436 -359.27856445 444 C-358.82056428 447.28828873 -358.40593825 450.58184705 -357.984375 453.875 C-356.3718489 466.16022853 -354.41355971 478.08403143 -351 490 C-350.61383515 491.41871435 -350.22981206 492.83801299 -349.84765625 494.2578125 C-344.11055659 515.44005707 -338.24543011 536.67051117 -328.66796875 556.4765625 C-326.64305921 560.75400607 -324.87041721 565.10805759 -323.140625 569.51171875 C-322.00877675 571.98085347 -320.66928711 573.87085418 -319 576 C-318.30959426 577.65697379 -317.6469365 579.3255761 -317 581 C-311.96255084 591.88089018 -305.48658829 602.13744184 -298.4921875 611.85546875 C-297.14167947 613.79638212 -295.95497005 615.74454065 -294.8125 617.8125 C-293.0834339 620.85327142 -291.20388419 623.29237086 -289 626 C-287.17877114 628.65203664 -285.37410671 631.31383604 -283.5859375 633.98828125 C-283.06257813 634.65214844 -282.53921875 635.31601562 -282 636 C-281.34 636 -280.68 636 -280 636 C-279.73445313 636.58394531 -279.46890625 637.16789063 -279.1953125 637.76953125 C-277.96345428 640.06819479 -276.61820023 641.75376393 -274.875 643.6875 C-273.946875 644.72390625 -273.946875 644.72390625 -273 645.78125 C-272.01 646.87953125 -272.01 646.87953125 -271 648 C-269.625 649.5625 -268.25 651.125 -266.875 652.6875 C-262.59541446 657.498604 -262.59541446 657.498604 -258 662 C-257.34 662 -256.68 662 -256 662 C-255.505 663.485 -255.505 663.485 -255 665 C-253.54943623 666.54794939 -253.54943623 666.54794939 -251.6875 668.0625 C-250.965625 668.67351563 -250.24375 669.28453125 -249.5 669.9140625 C-248.2625 670.94660156 -248.2625 670.94660156 -247 672 C-245.6078125 673.18722656 -245.6078125 673.18722656 -244.1875 674.3984375 C-230.2438525 686.19970166 -215.15664785 695.93196441 -199.5625 705.375 C-198.72211182 705.88708008 -197.88172363 706.39916016 -197.01586914 706.92675781 C-192.44116069 709.6753218 -187.94216478 711.99145355 -183 714 C-181.8553125 714.7115625 -181.8553125 714.7115625 -180.6875 715.4375 C-176.66055127 717.77874926 -172.33256024 719.3068796 -168 721 C-167.08436279 721.35876221 -166.16872559 721.71752441 -165.2253418 722.0871582 C-100.45423438 747.27872687 -24.37075533 752.5009597 42 730 C43.18851562 729.61070312 44.37703125 729.22140625 45.6015625 728.8203125 C52.99706981 726.31141534 59.7945952 723.22370248 66.7109375 719.6484375 C71.03790526 717.4798147 75.46514154 715.6822862 80 714 C80 713.34 80 712.68 80 712 C80.70511719 711.89816406 81.41023438 711.79632812 82.13671875 711.69140625 C85.41059645 710.90085188 87.88584467 709.59476266 90.8125 707.9375 C91.78832031 707.38964844 92.76414062 706.84179688 93.76953125 706.27734375 C94.50558594 705.85582031 95.24164063 705.43429687 96 705 C96 704.34 96 703.68 96 703 C97.26070312 702.66162109 97.26070312 702.66162109 98.546875 702.31640625 C102.66354698 700.74704148 105.74683687 698.56116137 109.25 695.9375 C115.85480349 691.07259825 115.85480349 691.07259825 118 690 C118 689.34 118 688.68 118 688 C118.53625 687.7525 119.0725 687.505 119.625 687.25 C122.5823982 685.69347463 125.29724051 683.96564327 128 682 C128 681.34 128 680.68 128 680 C130 679 132 678 134 677 C134 676.34 134 675.68 134 675 C134.58910156 674.91234375 135.17820312 674.8246875 135.78515625 674.734375 C138.59511452 673.80267808 139.5800626 672.53211708 141.4375 670.25 C143.51658092 667.74972596 145.57837674 665.36348628 147.9375 663.125 C150.23215846 661.25436301 150.23215846 661.25436301 150 659 C150.66 659 151.32 659 152 659 C153.50273886 657.55316948 153.50273886 657.55316948 155.0625 655.625 C157.76806724 652.43209456 160.53490416 649.32386906 163.375 646.25 C171.19254572 637.55794916 177.73591457 628.08960199 183.953125 618.22265625 C185.56402659 615.68640852 187.22087495 613.21403202 188.9375 610.75 C192.01422007 606.17414154 194.68408181 601.37123998 197.375 596.5625 C198.05550415 595.35255371 198.05550415 595.35255371 198.74975586 594.11816406 C199.1700708 593.35858398 199.59038574 592.59900391 200.0234375 591.81640625 C200.59457275 590.78688843 200.59457275 590.78688843 201.17724609 589.73657227 C202.14271911 588.01903456 202.14271911 588.01903456 202 586 C202.66 586 203.32 586 204 586 C204.32613281 585.19175781 204.65226563 584.38351562 204.98828125 583.55078125 C205.42527344 582.48214844 205.86226562 581.41351562 206.3125 580.3125 C206.74175781 579.25675781 207.17101562 578.20101562 207.61328125 577.11328125 C209 574 209 574 210.515625 571.4921875 C212.18994706 568.68108888 213.2984839 565.87850727 214.4375 562.8125 C214.86675781 561.67296875 215.29601562 560.5334375 215.73828125 559.359375 C216.15464844 558.25078125 216.57101562 557.1421875 217 556 C217.70172707 554.1849321 218.4093726 552.3721325 219.125 550.5625 C219.41632812 549.82128906 219.70765625 549.08007812 220.0078125 548.31640625 C220.76613016 546.5460032 221.61593427 544.8145265 222.50390625 543.10546875 C224.00236137 539.99509845 224.93086931 537.08328863 225.8125 533.75 C227.3560643 528.13166252 229.10803419 522.63481107 231 517.125 C233.82216644 508.8432275 235.9944569 500.51444206 238 492 C238.33897829 490.63227347 238.68015941 489.26509118 239.0234375 487.8984375 C242.03501982 475.87817001 243.96136586 463.87315526 245.64208984 451.59863281 C245.80402832 450.41881836 245.9659668 449.23900391 246.1328125 448.0234375 C246.27605957 446.96044434 246.41930664 445.89745117 246.56689453 444.80224609 C247 442 247 442 247.4944458 440.16287231 C251.87693342 421.41362413 250.40257278 399.66716421 250.37755966 380.55714417 C250.37495439 378.46334356 250.37562466 376.36955865 250.37637329 374.27575684 C250.36741047 352.61820425 249.29773971 331.42295705 246 310 C245.71984914 307.96670778 245.44349527 305.93288686 245.171875 303.8984375 C244.02593658 295.52553714 242.55142359 287.27901071 240.6484375 279.04296875 C240 276 240 276 239.6015625 272.55078125 C239.06346703 269.37462034 238.17169369 266.98349765 236.83837891 264.08105469 C234.96507847 259.43108004 233.92877236 254.47304118 232.6875 249.625 C229.08088086 235.90145982 224.74911783 222.76877493 219.15625 209.71875 C218.00802127 207.01886081 216.93677128 204.29736542 215.875 201.5625 C214.87394579 199.03583916 213.90141875 196.83569792 212.5 194.5 C211.11451112 192.19085187 210.20880219 190.06919895 209.25 187.5625 C206.63605073 180.8132013 203.29981026 174.43277618 200 168 C199.34 168 198.68 168 198 168 C197.87625 166.96939453 197.87625 166.96939453 197.75 165.91796875 C196.81329174 162.27358817 195.02204971 159.43395087 193 156.3125 C189.02777778 150.05555556 189.02777778 150.05555556 188 148 C187.34 148 186.68 148 186 148 C185.78730469 147.17113281 185.57460938 146.34226562 185.35546875 145.48828125 C183.65245 141.10558459 181.18584528 137.87303018 178.3125 134.1875 C177.77302734 133.48334961 177.23355469 132.77919922 176.67773438 132.05371094 C175.60858285 130.66047686 174.53592728 129.26992345 173.45947266 127.88232422 C172.22826639 126.29440179 171.0092112 124.69706889 169.79296875 123.09765625 C167.03144655 119.48180692 164.2318786 116.20697009 161 113 C159.84264322 111.69764998 158.69658594 110.38516374 157.5625 109.0625 C154.81328904 105.90621703 152.09081141 102.82588472 149 100 C148.34 100 147.68 100 147 100 C146.74863281 99.41089844 146.49726562 98.82179688 146.23828125 98.21484375 C144.84544599 95.72355798 143.3791428 94.37699586 141.1875 92.5625 C138.86457441 90.62597983 136.68046072 88.6794447 134.54296875 86.53515625 C116.71969429 68.76663839 94.18895767 56.38066249 72 45 C71.33983887 44.6596875 70.67967773 44.319375 69.99951172 43.96875 C49.14696449 33.35769416 25.42042198 26.25544188 2.24121094 23.30761719 C-0.09997029 22.98627859 -2.41604337 22.57994604 -4.7421875 22.1640625 C-19.20498803 19.77163816 -33.62745822 19.70356996 -48.25 19.6875 C-49.27176331 19.68400543 -50.29352661 19.68051086 -51.34625244 19.6769104 C-89.51027812 19.60461701 -130.8679058 24.63060249 -165.43359375 41.80078125 Z " fill="#060606" transform="translate(416,78)"/>
<path d="M0 0 C4.53806458 3.43593234 8.76081509 7.20452044 13 11 C14.04032797 11.85867823 15.08331631 12.71414322 16.12890625 13.56640625 C18.53929671 15.60949911 20.58490662 17.60216513 22.625 20 C23.21539062 20.69222656 23.80578125 21.38445312 24.4140625 22.09765625 C26.31136484 24.37348443 28.1768348 26.66406958 30 29 C30.51175781 29.63292969 31.02351563 30.26585937 31.55078125 30.91796875 C36.15524131 36.68630563 40.16068595 42.70046032 44 49 C44.61230469 49.99515625 45.22460938 50.9903125 45.85546875 52.015625 C50.44945858 59.65594925 54.41048875 67.16418746 56 76 C56.66 76 57.32 76 58 76 C58.32613281 77.00160156 58.65226562 78.00320313 58.98828125 79.03515625 C59.42952315 80.3776582 59.87093871 81.72010307 60.3125 83.0625 C60.52583984 83.71927734 60.73917969 84.37605469 60.95898438 85.05273438 C62.03508204 88.31314967 63.18926812 91.43908298 64.55078125 94.59765625 C70.32830158 108.16159211 72.26169783 123.60672515 75 138 C75.16419434 138.85577637 75.32838867 139.71155273 75.49755859 140.59326172 C78.64305183 157.10965159 79.23613139 173.21381999 79.25 190 C79.25167175 191.06536987 79.25334351 192.13073975 79.25506592 193.22839355 C79.25729766 216.97506296 77.84989257 240.57958011 71.8515625 263.6640625 C71.03030515 266.88128165 70.26501802 270.10646197 69.51513672 273.34082031 C66.99463707 284.21122164 64.32494876 294.68540522 60 305 C59.33108252 306.68660905 58.66441229 308.37411112 58 310.0625 C57.33568659 311.70928459 56.66912996 313.3551666 56 315 C55.72800781 315.68191406 55.45601563 316.36382813 55.17578125 317.06640625 C45.82365311 339.36763489 30.25884025 365.9781046 11 381 C9.7934375 382.2375 9.7934375 382.2375 8.5625 383.5 C5.83347112 386.1624672 2.95588279 388.34693262 -0.1328125 390.5703125 C-1.98394792 391.90938332 -1.98394792 391.90938332 -3.31640625 393.390625 C-5.88494848 395.84593683 -8.84346318 397.69745777 -11.8125 399.625 C-12.41642578 400.03234375 -13.02035156 400.4396875 -13.64257812 400.859375 C-17.41752151 403.31369772 -20.41438767 404.59270212 -25 405 C-25 405.66 -25 406.32 -25 407 C-26.65 407.33 -28.3 407.66 -30 408 C-30 408.66 -30 409.32 -30 410 C-65.88635213 424.1490243 -110.17849327 426.96500923 -146.421875 412 C-147.90962759 411.34333679 -149.38931546 410.66802614 -150.859375 409.97265625 C-153.0206127 408.99063401 -155.1991462 408.2254919 -157.4375 407.4375 C-166.96372907 403.70526491 -177.13690826 397.57742034 -185 391 C-185 390.34 -185 389.68 -185 389 C-186.30324219 388.66548828 -186.30324219 388.66548828 -187.6328125 388.32421875 C-191.48539202 386.80910917 -193.97092266 384.65697962 -196.875 381.8125 C-197.92751113 380.81027895 -198.98089725 379.808976 -200.03515625 378.80859375 C-200.54191895 378.32374512 -201.04868164 377.83889648 -201.57080078 377.33935547 C-203.42082046 375.60563358 -205.36045256 373.9921933 -207.3125 372.375 C-212.1435168 368.1908139 -216.95650868 363.13047395 -219 357 C-219.66 357 -220.32 357 -221 357 C-222.02611949 355.34928604 -223.02308143 353.68029994 -224 352 C-224.99628946 350.99630318 -225.99654037 349.99652836 -227 349 C-228.81131728 346.61219274 -230.45724655 344.11461467 -232.125 341.625 C-232.58003906 340.965 -233.03507812 340.305 -233.50390625 339.625 C-235.85783944 336.1185476 -237.58394258 333.31035492 -238 329 C-238.66 329 -239.32 329 -240 329 C-240.58333333 327.6875 -241.16666667 326.375 -241.75 325.0625 C-242.30300781 323.82113281 -242.30300781 323.82113281 -242.8671875 322.5546875 C-243.56581059 320.97917199 -244.25957385 319.40147848 -244.9453125 317.8203125 C-246.82483767 313.50846063 -248.86793146 309.3490522 -251.0625 305.1875 C-253.54357666 300.26876552 -255.03644364 295.62814828 -256.22265625 290.265625 C-257.43578204 285.16927744 -259.10021957 280.23009364 -260.71875 275.25 C-272.40598893 237.50319154 -274.50448773 192.65299715 -267.50488281 153.82910156 C-266.92094021 150.5569899 -266.41082471 147.27624438 -265.8984375 143.9921875 C-263.84054214 131.23425212 -261.29297361 119.04007256 -256.71435547 106.94189453 C-255.94303433 104.84514527 -255.25064194 102.73089843 -254.5625 100.60546875 C-252.97560364 95.80420853 -251.09235167 91.15631881 -249.125 86.5 C-248.79886719 85.70980469 -248.47273438 84.91960937 -248.13671875 84.10546875 C-246.07568466 79.20550054 -243.73860593 74.57821334 -241.10693359 69.96044922 C-239.88095919 67.78917121 -238.80262579 65.57230379 -237.75 63.3125 C-235.5802579 58.91791124 -233.08238235 54.8062522 -230.4375 50.6875 C-230.06141602 50.10073486 -229.68533203 49.51396973 -229.29785156 48.90942383 C-227.04332093 45.44908485 -224.7435139 42.09152835 -222 39 C-221.34 39 -220.68 39 -220 39 C-219.7525 38.05125 -219.505 37.1025 -219.25 36.125 C-217.82678531 32.56696327 -217.30893663 32.44765978 -214 31 C-213.29605388 29.68596724 -212.63654342 28.3479743 -212 27 C-210.44057705 24.85776242 -208.79033895 22.96937285 -207 21 C-206.34 21 -205.68 21 -205 21 C-205 20.34 -205 19.68 -205 19 C-203.3203125 17.2734375 -203.3203125 17.2734375 -201.125 15.375 C-200.40570313 14.74335938 -199.68640625 14.11171875 -198.9453125 13.4609375 C-197 12 -197 12 -195 12 C-195 11.34 -195 10.68 -195 10 C-191.53846154 7 -191.53846154 7 -189 7 C-189 6.34 -189 5.68 -189 5 C-186.0670262 2.83518601 -183.16209643 1.07780629 -179.875 -0.5 C-176.99413595 -1.8065531 -176.99413595 -1.8065531 -175.23046875 -3.85546875 C-131.19171889 -46.19745417 -44.52471598 -30.75599167 0 0 Z M-166 18 C-166.91394531 18.61230469 -167.82789063 19.22460938 -168.76953125 19.85546875 C-179.91892036 27.51149143 -190.6609932 37.32244564 -199 48 C-199.43376953 48.55381348 -199.86753906 49.10762695 -200.31445312 49.67822266 C-209.99928059 62.11601656 -219.03116031 74.91260139 -224.87109375 89.6484375 C-226.19397157 92.98054615 -227.53393342 96.30423648 -228.89453125 99.62109375 C-237.07265547 119.9408953 -242.67885221 141.19843806 -245 163 C-245.0928125 163.82258301 -245.185625 164.64516602 -245.28125 165.49267578 C-250.10189536 214.17258563 -245.23797651 267.24338466 -222 311 C-221.53078125 311.90105469 -221.0615625 312.80210937 -220.578125 313.73046875 C-217.75420665 318.95471769 -214.81360065 324.10078 -211.75 329.1875 C-211.08484375 330.29480469 -210.4196875 331.40210938 -209.734375 332.54296875 C-209.16203125 333.35378906 -208.5896875 334.16460938 -208 335 C-207.34 335 -206.68 335 -206 335 C-204 339 -204 339 -203.1875 340.9375 C-200.99624346 344.74336662 -197.53202909 347.49330563 -194.375 350.5 C-192 353 -192 353 -190.4375 355.6875 C-188.78631598 358.34375256 -187.76352014 358.69951993 -185 360 C-183.32345078 361.65672516 -181.65820966 363.32491902 -180 365 C-174.01266756 370.36248622 -167.98837479 374.89388269 -160.80078125 378.515625 C-158.50172429 379.73409312 -156.40266724 381.02839785 -154.23046875 382.44921875 C-150.00973927 385.11290629 -145.69084317 386.89488262 -141 388.5625 C-139.76866333 389.00746826 -139.76866333 389.00746826 -138.51245117 389.46142578 C-122.89384692 394.97635479 -108.0277732 397.21726955 -91.5 397.1875 C-90.78213318 397.18623108 -90.06426636 397.18496216 -89.324646 397.18365479 C-62.01707658 397.09133504 -38.01482988 391.63639705 -16.8203125 373.53125 C-15 372 -15 372 -13 371 C-13 370.34 -13 369.68 -13 369 C-12.46375 368.773125 -11.9275 368.54625 -11.375 368.3125 C-8.17539839 366.54429911 -5.70962777 364.46329797 -3 362 C-3 361.34 -3 360.68 -3 360 C-2.01 359.67 -1.02 359.34 0 359 C5.2048774 353.98437635 9.42396604 347.91681168 13.625 342.0625 C14.1715625 341.31548828 14.718125 340.56847656 15.28125 339.79882812 C18.93919663 334.72758393 22.09416066 329.53385148 25 324 C25.37012207 323.29818604 25.74024414 322.59637207 26.12158203 321.87329102 C27.18064608 319.84003148 28.21840769 317.79731398 29.25 315.75 C29.600625 315.069375 29.95125 314.38875 30.3125 313.6875 C32.10168166 310.13666255 33.4738876 306.99226468 34 303 C34.66 303 35.32 303 36 303 C36.17015625 302.39414062 36.3403125 301.78828125 36.515625 301.1640625 C37.79040803 296.75656799 39.15909851 292.48161146 40.9375 288.25 C43.49312625 281.9770992 45.3042704 275.54996359 47 269 C47.29608154 267.87996582 47.29608154 267.87996582 47.59814453 266.73730469 C53.99724414 242.13154092 56.36934434 217.59005904 56.375 192.25 C56.37690338 191.33772644 56.37880676 190.42545288 56.38076782 189.48553467 C56.3752284 166.08966991 53.48379078 143.76200157 47.54150391 121.12011719 C46.9801692 118.92235766 46.46206418 116.71735706 45.94921875 114.5078125 C42.97750155 102.0349713 38.3978938 90.61263701 33 79 C32.67708984 78.29907227 32.35417969 77.59814453 32.02148438 76.87597656 C28.76363935 69.86847052 25.18514997 63.39446619 20.578125 57.18359375 C19 55 19 55 17.44921875 52.375 C16.0286308 49.83745974 16.0286308 49.83745974 13.5625 47.5625 C11 45 11 45 9.19921875 42.21484375 C6.82592313 38.74553239 4.23695494 35.93334536 1.25 33 C0.72212891 32.47672119 0.19425781 31.95344238 -0.34960938 31.41430664 C-4.30841888 27.54651118 -8.43968673 24.14039755 -13 21 C-13.6909375 20.45472656 -14.381875 19.90945313 -15.09375 19.34765625 C-16.88309738 17.80757524 -16.88309738 17.80757524 -19 18 C-19 17.34 -19 16.68 -19 16 C-22.80427492 13.7986134 -22.80427492 13.7986134 -27 13 C-27 12.34 -27 11.68 -27 11 C-71.19634507 -9.76585028 -124.92909796 -11.60680903 -166 18 Z " fill="#060606" transform="translate(451,265)"/>
<path d="M0 0 C1.41655793 -0.0272415 2.83327045 -0.04650467 4.25 -0.0625 C5.43335938 -0.07990234 5.43335938 -0.07990234 6.640625 -0.09765625 C8.9117607 -0.00365229 10.80678518 0.44940214 13 1 C14.67654729 0.72057545 16.34608154 0.39171753 18 0 C18.66 0 19.32 0 20 0 C20 0.99 20 1.98 20 3 C21.32 3 22.64 3 24 3 C24.33 2.01 24.66 1.02 25 0 C25 2.64 25 5.28 25 8 C24.67 6.68 24.34 5.36 24 4 C22.68 4 21.36 4 20 4 C19.67 5.32 19.34 6.64 19 8 C10.42857143 8.28571429 10.42857143 8.28571429 7 6 C7 6.66 7 7.32 7 8 C4.69 8 2.38 8 0 8 C0 5.36 0 2.72 0 0 Z " fill="#9D9D9D" transform="translate(123,944)"/>
<path d="M0 0 C3 0 3 0 5 1 C4.814375 1.598125 4.62875 2.19625 4.4375 2.8125 C3.77906313 5.16408762 3.77906313 5.16408762 5 8 C1.66666667 8 -1.66666667 8 -5 8 C-5.33 6.68 -5.66 5.36 -6 4 C-6.99 4 -7.98 4 -9 4 C-8.01 4.33 -7.02 4.66 -6 5 C-6.33 5.99 -6.66 6.98 -7 8 C-9.64 8 -12.28 8 -15 8 C-15 5.69 -15 3.38 -15 1 C-13.02043559 1.14033111 -11.04134859 1.2874123 -9.0625 1.4375 C-7.96035156 1.51871094 -6.85820313 1.59992187 -5.72265625 1.68359375 C-3 2 -3 2 -2 3 C-1.34 2.01 -0.68 1.02 0 0 Z " fill="#D9D9D9" transform="translate(666,944)"/>
<path d="M0 0 C0.9075 0.00257813 1.815 0.00515625 2.75 0.0078125 C4.11125 0.00394531 4.11125 0.00394531 5.5 0 C7.75 0.1328125 7.75 0.1328125 8.75 1.1328125 C8.79080783 3.13239614 8.79254356 5.13326504 8.75 7.1328125 C5.01835686 8.01084618 1.58319229 8.30704851 -2.25 8.1328125 C-3.25 7.1328125 -3.25 7.1328125 -3.375 4.1328125 C-3.21069616 0.18952026 -3.21069616 0.18952026 0 0 Z " fill="#4B4B4B" transform="translate(169.25,943.8671875)"/>
<path d="M0 0 C3.3 0 6.6 0 10 0 C10.268125 0.94875 10.53625 1.8975 10.8125 2.875 C11.74986588 6.25267273 11.74986588 6.25267273 15 8 C12 8 9 8 6 8 C5.67 7.34 5.34 6.68 5 6 C4.67 6.66 4.34 7.32 4 8 C2.68 8 1.36 8 0 8 C0 5.36 0 2.72 0 0 Z " fill="#9A9A9A" transform="translate(150,944)"/>
<path d="M0 0 C1.32 0.33 2.64 0.66 4 1 C3.01 1 2.02 1 1 1 C1 1.66 1 2.32 1 3 C4.49234244 3.09978121 7.59437148 2.77842938 11 2 C11 3.98 11 5.96 11 8 C7.37 8 3.74 8 0 8 C0 5.36 0 2.72 0 0 Z " fill="#9C9C9C" transform="translate(682,944)"/>
<path d="M0 0 C1.32 0.33 2.64 0.66 4 1 C3.01 1 2.02 1 1 1 C1 1.66 1 2.32 1 3 C4.3 2.67 7.6 2.34 11 2 C11 3.98 11 5.96 11 8 C9.39125 7.7215625 9.39125 7.7215625 7.75 7.4375 C4.59608454 7.0695432 2.90181508 6.95534657 0 8 C0 5.36 0 2.72 0 0 Z " fill="#929292" transform="translate(631,944)"/>
<path d="M0 0 C0.99 0.66 1.98 1.32 3 2 C2.31550781 2.35964844 1.63101563 2.71929688 0.92578125 3.08984375 C-2.78723474 5.51396233 -5.70796108 8.41642879 -8.8125 11.5625 C-9.40998047 12.15224609 -10.00746094 12.74199219 -10.62304688 13.34960938 C-13.87506442 16.15000358 -13.87506442 16.15000358 -15 20 C-19.455 21.485 -19.455 21.485 -24 23 C-23.67 22.34 -23.34 21.68 -23 21 C-22.34 21 -21.68 21 -21 21 C-21 20.34 -21 19.68 -21 19 C-17.53846154 16 -17.53846154 16 -15 16 C-14.67 15.01 -14.34 14.02 -14 13 C-12.5583347 11.75492542 -11.11134887 10.51461109 -9.62109375 9.328125 C-7.24617884 7.38241158 -5.13995688 5.19779355 -3 3 C-2 2 -1 1 0 0 Z " fill="#D9D9D9" transform="translate(583,755)"/>
<path d="M0 0 C1.2065625 0.0309375 1.2065625 0.0309375 2.4375 0.0625 C2.7675 1.0525 3.0975 2.0425 3.4375 3.0625 C4.0975 3.3925 4.7575 3.7225 5.4375 4.0625 C4.7775 4.0625 4.1175 4.0625 3.4375 4.0625 C3.1075 5.3825 2.7775 6.7025 2.4375 8.0625 C0.77138095 8.105221 -0.89632885 8.10313832 -2.5625 8.0625 C-3.5625 7.0625 -3.5625 7.0625 -3.6875 4.0625 C-3.52180824 0.08589776 -3.52180824 0.08589776 0 0 Z " fill="#9B9B9B" transform="translate(675.5625,943.9375)"/>
<path d="M0 0 C1.98 0 3.96 0 6 0 C6 0.99 6 1.98 6 3 C7.32 3 8.64 3 10 3 C10.33 2.01 10.66 1.02 11 0 C11 2.64 11 5.28 11 8 C10.67 6.68 10.34 5.36 10 4 C8.68 4 7.36 4 6 4 C5.67 5.32 5.34 6.64 5 8 C2.525 7.01 2.525 7.01 0 6 C0 4.02 0 2.04 0 0 Z " fill="#9E9E9E" transform="translate(137,944)"/>
<path d="M0 0 C2.64 0.33 5.28 0.66 8 1 C7.34 1.66 6.68 2.32 6 3 C6.99 3.33 7.98 3.66 9 4 C8.67 4.99 8.34 5.98 8 7 C5.36 7 2.72 7 0 7 C0 4.69 0 2.38 0 0 Z " fill="#5C5C5C" transform="translate(651,945)"/>
<path d="M0 0 C0.33 0.66 0.66 1.32 1 2 C0.525625 2.433125 0.05125 2.86625 -0.4375 3.3125 C-2.23686957 5.02309613 -2.23686957 5.02309613 -3 8 C-3.5775 8.12375 -4.155 8.2475 -4.75 8.375 C-8.07753626 9.29931563 -9.64396421 11.52903563 -12 14 C-13.64864545 15.35555293 -15.31003995 16.69631653 -17 18 C-17.66 17.67 -18.32 17.34 -19 17 C-13.04558222 10.87811422 -6.88599475 5.06906931 0 0 Z " fill="#C9C9C9" transform="translate(278,288)"/>
<path d="M0 0 C0.66 0.66 1.32 1.32 2 2 C2.33 1.34 2.66 0.68 3 0 C4.65 0 6.3 0 8 0 C8 2.64 8 5.28 8 8 C7.34 8 6.68 8 6 8 C5.67 6.68 5.34 5.36 5 4 C4.67 5.32 4.34 6.64 4 8 C3.01 8 2.02 8 1 8 C0.67 5.36 0.34 2.72 0 0 Z " fill="#969696" transform="translate(85,944)"/>
<path d="M0 0 C1.67542976 0.28604898 3.34385343 0.61781233 5 1 C5 2.98 5 4.96 5 7 C3.34385343 7.38218767 1.67542976 7.71395102 0 8 C-1 7 -1 7 -1.125 4 C-1 1 -1 1 0 0 Z " fill="#ADADAD" transform="translate(167,944)"/>
<path d="M0 0 C1.67542976 0.28604898 3.34385343 0.61781233 5 1 C5 2.98 5 4.96 5 7 C3.34385343 7.38218767 1.67542976 7.71395102 0 8 C-1 7 -1 7 -1.125 4 C-1 1 -1 1 0 0 Z " fill="#434343" transform="translate(58,944)"/>
<path d="M0 0 C2.97 0.495 2.97 0.495 6 1 C6.12375 1.78375 6.2475 2.5675 6.375 3.375 C6.79117993 6.14057822 6.79117993 6.14057822 9 8 C4.78121808 8.19622241 1.82989106 7.80230168 -2 6 C-1.34 4.02 -0.68 2.04 0 0 Z " fill="#909090" transform="translate(131,944)"/>
<path d="M0 0 C2.58121494 4.40092202 1.88557764 7.08906944 1 12 C0.67 12.33 0.34 12.66 0 13 C-0.28318854 15.84087552 -0.44850213 18.68165215 -0.62109375 21.53125 C-0.74613281 22.3459375 -0.87117188 23.160625 -1 24 C-1.66 24.33 -2.32 24.66 -3 25 C-2.48244596 16.55569721 -1.5439119 8.31913693 0 0 Z " fill="#262626" transform="translate(36,384)"/>
<path d="M0 0 C2.475 0.495 2.475 0.495 5 1 C5.103125 1.78375 5.20625 2.5675 5.3125 3.375 C5.77595022 6.33045181 5.77595022 6.33045181 9 8 C6 8 3 8 0 8 C0 5.36 0 2.72 0 0 Z " fill="#868686" transform="translate(156,944)"/>
<path d="M0 0 C5.625 5.625 5.625 5.625 6.3125 10.3125 C6.45300781 11.19550781 6.59351562 12.07851563 6.73828125 12.98828125 C6.82464844 13.65214844 6.91101563 14.31601562 7 15 C6.34 15 5.68 15 5 15 C4.67 15.66 4.34 16.32 4 17 C2.68 11.39 1.36 5.78 0 0 Z " fill="#E9E9E9" transform="translate(64,563)"/>
<path d="M0 0 C0.99 0.33 1.98 0.66 3 1 C3 1.99 3 2.98 3 4 C3.66 4 4.32 4 5 4 C5.33 2.68 5.66 1.36 6 0 C6.66 0 7.32 0 8 0 C8 2.64 8 5.28 8 8 C7.34 7.34 6.68 6.68 6 6 C5.67 6.66 5.34 7.32 5 8 C4.34 8 3.68 8 3 8 C2.67 7.34 2.34 6.68 2 6 C1.34 6.66 0.68 7.32 0 8 C0 5.36 0 2.72 0 0 Z " fill="#555555" transform="translate(75,944)"/>
<path d="M0 0 C0.99 0.33 1.98 0.66 3 1 C3.33 1.99 3.66 2.98 4 4 C4.66 2.68 5.32 1.36 6 0 C6.66 0 7.32 0 8 0 C8 2.64 8 5.28 8 8 C7.34 7.34 6.68 6.68 6 6 C5.67 6.66 5.34 7.32 5 8 C4.34 8 3.68 8 3 8 C2.67 7.01 2.34 6.02 2 5 C1.34 5.99 0.68 6.98 0 8 C0 5.36 0 2.72 0 0 Z " fill="#4F4F4F" transform="translate(65,944)"/>
<path d="M0 0 C0.66 0 1.32 0 2 0 C2.33 1.32 2.66 2.64 3 4 C3.66 4 4.32 4 5 4 C5.33 2.68 5.66 1.36 6 0 C6.66 0 7.32 0 8 0 C8 2.64 8 5.28 8 8 C7.34 7.34 6.68 6.68 6 6 C5.67 6.66 5.34 7.32 5 8 C4.34 8 3.68 8 3 8 C2.67 7.01 2.34 6.02 2 5 C1.34 5.99 0.68 6.98 0 8 C0 5.36 0 2.72 0 0 Z " fill="#4F4F4F" transform="translate(180,944)"/>
<path d="M0 0 C0.66 0 1.32 0 2 0 C2.33 1.32 2.66 2.64 3 4 C3.66 4 4.32 4 5 4 C5.33 2.68 5.66 1.36 6 0 C6.66 0 7.32 0 8 0 C8 2.64 8 5.28 8 8 C7.34 7.34 6.68 6.68 6 6 C5.67 6.66 5.34 7.32 5 8 C4.34 8 3.68 8 3 8 C2.67 7.01 2.34 6.02 2 5 C1.34 5.99 0.68 6.98 0 8 C0 5.36 0 2.72 0 0 Z " fill="#4E4E4E" transform="translate(101,944)"/>
<path d="M0 0 C0.66 0 1.32 0 2 0 C2.33 1.32 2.66 2.64 3 4 C3.66 4 4.32 4 5 4 C5.33 2.68 5.66 1.36 6 0 C6.66 0 7.32 0 8 0 C8 2.64 8 5.28 8 8 C7.34 7.34 6.68 6.68 6 6 C5.67 6.66 5.34 7.32 5 8 C4.34 8 3.68 8 3 8 C2.67 7.01 2.34 6.02 2 5 C1.34 5.99 0.68 6.98 0 8 C0 5.36 0 2.72 0 0 Z " fill="#4B4B4B" transform="translate(47,944)"/>
<path d="M0 0 C0.33 0 0.66 0 1 0 C1.33 3.96 1.66 7.92 2 12 C0.35 12 -1.3 12 -3 12 C-2.88601335 10.37419034 -2.75844341 8.74932843 -2.625 7.125 C-2.55539062 6.22007812 -2.48578125 5.31515625 -2.4140625 4.3828125 C-2 2 -2 2 0 0 Z " fill="#E8E8E8" transform="translate(661,388)"/>
<path d="M0 0 C1.12733524 3.94567332 1.32234763 7.03295711 0 11 C-1.62332967 12.38576923 -3.28724465 13.72641268 -5 15 C-4.54705135 13.24859857 -4.08741252 11.49892656 -3.625 9.75 C-3.36976563 8.77546875 -3.11453125 7.8009375 -2.8515625 6.796875 C-2.10401491 4.34162697 -1.22876183 2.24382595 0 0 Z " fill="#D2D2D2" transform="translate(221,368)"/>
<path d="M0 0 C1.65 0 3.3 0 5 0 C5 1.98 5 3.96 5 6 C3.35 5.67 1.7 5.34 0 5 C0 3.35 0 1.7 0 0 Z " fill="#8C8C8C" transform="translate(637,946)"/>
<path d="M0 0 C2.33944736 0.28730055 4.6739143 0.61936779 7 1 C4.55420823 3.30925485 3.40557866 3.99001814 -0.015625 4.07421875 C-1.08296875 3.94660156 -2.1503125 3.81898437 -3.25 3.6875 C-4.32765625 3.56761719 -5.4053125 3.44773437 -6.515625 3.32421875 C-7.33546875 3.21722656 -8.1553125 3.11023438 -9 3 C-9 2.67 -9 2.34 -9 2 C-6.94921875 1.77213542 -4.8984375 1.54427083 -2.84765625 1.31640625 C-0.98859771 1.18113386 -0.98859771 1.18113386 0 0 Z " fill="#333333" transform="translate(417,98)"/>
<path d="M0 0 C1.99788438 0.34578768 3.99759451 0.68143549 6 1 C6 1.33 6 1.66 6 2 C1.38 2.33 -3.24 2.66 -8 3 C-8.66 2.01 -9.32 1.02 -10 0 C-6.26677379 -0.76361445 -3.63529037 -1.13602824 0 0 Z " fill="#DCDCDC" transform="translate(338,74)"/>
<path d="M0 0 C1.32 0 2.64 0 4 0 C4 1.98 4 3.96 4 6 C2.35 5.67 0.7 5.34 -1 5 C-0.67 3.35 -0.34 1.7 0 0 Z " fill="#888888" transform="translate(689,946)"/>
<path d="M0 0 C0.66 0.66 1.32 1.32 2 2 C1.67 2.99 1.34 3.98 1 5 C-2.37503669 3.8141763 -4.64722731 2.72426311 -7 0 C-4.29393021 -1.35303489 -2.8671629 -0.7884698 0 0 Z " fill="#ECECEC" transform="translate(295,641)"/>
<path d="M0 0 C0.66 0 1.32 0 2 0 C1.690625 0.7425 1.38125 1.485 1.0625 2.25 C0.1905075 4.50692176 -0.47667007 6.6450153 -1 9 C-2.65 9.33 -4.3 9.66 -6 10 C-5.67 9.01 -5.34 8.02 -5 7 C-4.01 7 -3.02 7 -2 7 C-2 6.34 -2 5.68 -2 5 C-2.66 4.67 -3.32 4.34 -4 4 C-2.68 3.34 -1.36 2.68 0 2 C0 1.34 0 0.68 0 0 Z " fill="#E0E0E0" transform="translate(184,158)"/>
<path d="M0 0 C1.125 3.75 1.125 3.75 0 6 C-0.66 6.66 -1.32 7.32 -2 8 C-2 8.66 -2 9.32 -2 10 C-3.65 10.66 -5.3 11.32 -7 12 C-5.61735163 9.13132769 -4.07851447 6.43975968 -2.375 3.75 C-1.92898438 3.04359375 -1.48296875 2.3371875 -1.0234375 1.609375 C-0.68570313 1.07828125 -0.34796875 0.5471875 0 0 Z " fill="#CECECE" transform="translate(626,698)"/>
<path d="M0 0 C-0.99 0.495 -0.99 0.495 -2 1 C-1.67 2.32 -1.34 3.64 -1 5 C-2.98 5 -4.96 5 -7 5 C-7 3.68 -7 2.36 -7 1 C-4.53721199 -0.231394 -2.7204945 -0.07159196 0 0 Z " fill="#B3B3B3" transform="translate(709,946)"/>
<path d="M0 0 C2.89932357 2.39509338 3.50168276 4.31245243 4 8 C3.01 8.33 2.02 8.66 1 9 C-1 6 -1 6 -0.625 2.8125 C-0.41875 1.884375 -0.2125 0.95625 0 0 Z " fill="#202020" transform="translate(99,659)"/>
<path d="M0 0 C3 0 3 0 5 1 C4.814375 1.598125 4.62875 2.19625 4.4375 2.8125 C3.77906313 5.16408762 3.77906313 5.16408762 5 8 C3.33333333 8 1.66666667 8 0 8 C0 5.36 0 2.72 0 0 Z " fill="#616161" transform="translate(666,944)"/>
<path d="M0 0 C2.5 2.3125 2.5 2.3125 5 5 C5 5.99 5 6.98 5 8 C4.38125 7.67 3.7625 7.34 3.125 7 C1.08981656 5.85806765 1.08981656 5.85806765 -1 6 C-1.33 4.68 -1.66 3.36 -2 2 C-1.34 2 -0.68 2 0 2 C0 1.34 0 0.68 0 0 Z " fill="#CACACA" transform="translate(98,704)"/>
<path d="M0 0 C-1.11328125 1.51953125 -1.11328125 1.51953125 -3 3 C-5.91796875 3.07421875 -5.91796875 3.07421875 -9.1875 2.6875 C-10.27417969 2.56761719 -11.36085938 2.44773437 -12.48046875 2.32421875 C-13.31191406 2.21722656 -14.14335937 2.11023438 -15 2 C-15 1.67 -15 1.34 -15 1 C-13.25215171 0.63536268 -11.50159498 0.2836922 -9.75 -0.0625 C-8.28820312 -0.35833984 -8.28820312 -0.35833984 -6.796875 -0.66015625 C-4.131881 -0.98397535 -2.51128277 -0.85503199 0 0 Z " fill="#D4D4D4" transform="translate(399,683)"/>
<path d="M0 0 C0 1.32 0 2.64 0 4 C-2.31 4.66 -4.62 5.32 -7 6 C-7 5.34 -7 4.68 -7 4 C-7.66 3.67 -8.32 3.34 -9 3 C-2.25 0 -2.25 0 0 0 Z " fill="#1E1E1E" transform="translate(475,801)"/>
<path d="M0 0 C0.33 0.66 0.66 1.32 1 2 C0.67 2.66 0.34 3.32 0 4 C-3.37462715 3.45276317 -5.08235 2.9451 -8 1 C-3.375 -1.125 -3.375 -1.125 0 0 Z " fill="#E5E5E5" transform="translate(269,802)"/>
<path d="M0 0 C0.66 0.33 1.32 0.66 2 1 C-0.06936578 4.10404867 -2.26602464 6.47107279 -5 9 C-5.66 9 -6.32 9 -7 9 C-7 7.68 -7 6.36 -7 5 C-4.0625 2.8125 -4.0625 2.8125 -1 1 C-0.67 0.67 -0.34 0.34 0 0 Z " fill="#202020" transform="translate(523,774)"/>
<path d="M0 0 C0.33 0 0.66 0 1 0 C1 2.31 1 4.62 1 7 C-0.65 7 -2.3 7 -4 7 C-3.67 5.35 -3.34 3.7 -3 2 C-2.01 2 -1.02 2 0 2 C0 1.34 0 0.68 0 0 Z " fill="#E8E8E8" transform="translate(46,945)"/>
<path d="M0 0 C0.66 0.33 1.32 0.66 2 1 C-0.64 3.97 -3.28 6.94 -6 10 C-6.66 9.67 -7.32 9.34 -8 9 C-6.4169423 4.7257442 -3.49431596 2.73468206 0 0 Z " fill="#CECECE" transform="translate(556,779)"/>
<path d="M0 0 C1.32 0 2.64 0 4 0 C3.67 2.64 3.34 5.28 3 8 C2.01 8 1.02 8 0 8 C0 5.36 0 2.72 0 0 Z " fill="#2B2B2B" transform="translate(665,488)"/>
<path d="M0 0 C0.66 1.32 1.32 2.64 2 4 C1.34 4 0.68 4 0 4 C-0.268125 4.61875 -0.53625 5.2375 -0.8125 5.875 C-2 8 -2 8 -5 10 C-3.66511872 6.40608886 -2.03977277 3.24509304 0 0 Z " fill="#CACACA" transform="translate(110,244)"/>
<path d="M0 0 C2.5 2.3125 2.5 2.3125 5 5 C5 5.99 5 6.98 5 8 C1 8 1 8 -1 7 C-0.67 4.69 -0.34 2.38 0 0 Z " fill="#242424" transform="translate(609,200)"/>
<path d="M0 0 C0.33 0 0.66 0 1 0 C0.67 4.29 0.34 8.58 0 13 C-0.33 13 -0.66 13 -1 13 C-1.33 9.37 -1.66 5.74 -2 2 C-1.34 2 -0.68 2 0 2 C0 1.34 0 0.68 0 0 Z " fill="#CCCCCC" transform="translate(61,534)"/>
<path d="M0 0 C0.99 0 1.98 0 3 0 C3 3.96 3 7.92 3 12 C0.50494038 9.50494038 0.64051624 8.32671112 0.375 4.875 C0.30023438 3.96492188 0.22546875 3.05484375 0.1484375 2.1171875 C0.09945313 1.41851562 0.05046875 0.71984375 0 0 Z " fill="#393939" transform="translate(499,388)"/>
<path d="M0 0 C1.88391785 3.26545761 2.49287967 6.28111761 3 10 C2.01 10.66 1.02 11.32 0 12 C-0.76173392 7.6835078 -1.16063604 4.25566547 0 0 Z " fill="#ECECEC" transform="translate(517,356)"/>
<path d="M0 0 C2.64 0.66 5.28 1.32 8 2 C7.01 2.495 7.01 2.495 6 3 C6 3.66 6 4.32 6 5 C4.68 5 3.36 5 2 5 C2 4.34 2 3.68 2 3 C1.34 3 0.68 3 0 3 C0 2.01 0 1.02 0 0 Z " fill="#131313" transform="translate(480,98)"/>
<path d="M0 0 C-0.33 1.65 -0.66 3.3 -1 5 C-1.99 5.33 -2.98 5.66 -4 6 C-4.66 5.34 -5.32 4.68 -6 4 C-2.25 0 -2.25 0 0 0 Z " fill="#F0F0F0" transform="translate(526,769)"/>
<path d="M0 0 C0.66 0.33 1.32 0.66 2 1 C1.25 3.4375 1.25 3.4375 0 6 C-2.125 6.8125 -2.125 6.8125 -4 7 C-2.92598892 4.08482708 -2.22189824 2.22189824 0 0 Z " fill="#EFEFEF" transform="translate(612,671)"/>
<path d="M0 0 C1.25541557 3.76624671 0.37061958 5.37188934 -1 9 C-1.99 8.34 -2.98 7.68 -4 7 C-3.67 5.02 -3.34 3.04 -3 1 C-2.01 1.33 -1.02 1.66 0 2 C0 1.34 0 0.68 0 0 Z " fill="#DADADA" transform="translate(654,565)"/>
<path d="M0 0 C0.66 0.99 1.32 1.98 2 3 C0.60755361 5.78489278 -1.55991988 7.12301529 -4 9 C-4.66 8.67 -5.32 8.34 -6 8 C-4.02 5.36 -2.04 2.72 0 0 Z " fill="#CDCDCD" transform="translate(246,321)"/>
<path d="M0 0 C0.99 0 1.98 0 3 0 C2.45276317 3.37462715 1.9451 5.08235 0 8 C-1.125 2.25 -1.125 2.25 0 0 Z " fill="#141414" transform="translate(75,312)"/>
<path d="M0 0 C0.33 1.32 0.66 2.64 1 4 C-1.97 6.475 -1.97 6.475 -5 9 C-5.66 8.67 -6.32 8.34 -7 8 C-5.625 6 -5.625 6 -4 4 C-3.34 4 -2.68 4 -2 4 C-1.34 2.68 -0.68 1.36 0 0 Z " fill="#3C3C3C" transform="translate(239,292)"/>
<path d="M0 0 C0.66 0.33 1.32 0.66 2 1 C2.625 4.0625 2.625 4.0625 3 7 C1.35 6.67 -0.3 6.34 -2 6 C-1.34 4.02 -0.68 2.04 0 0 Z " fill="#636363" transform="translate(131,944)"/>
<path d="M0 0 C0.99 0.33 1.98 0.66 3 1 C2.67 2.65 2.34 4.3 2 6 C1.01 5.67 0.02 5.34 -1 5 C-0.67 3.35 -0.34 1.7 0 0 Z " fill="#F2F2F2" transform="translate(174,945)"/>
<path d="M0 0 C0.99 0.33 1.98 0.66 3 1 C2.67 2.65 2.34 4.3 2 6 C1.01 5.67 0.02 5.34 -1 5 C-0.67 3.35 -0.34 1.7 0 0 Z " fill="#FAFAFA" transform="translate(59,945)"/>
<path d="M0 0 C0.99 0.33 1.98 0.66 3 1 C2.25 5.75 2.25 5.75 0 8 C-0.79953138 4.71303767 -1.09658936 3.28976808 0 0 Z " fill="#EDEDED" transform="translate(593,698)"/>
<path d="M0 0 C1.45606519 4.52092968 0.27032841 7.51648796 -1 12 C-1.33 12 -1.66 12 -2 12 C-1.67 9.69 -1.34 7.38 -1 5 C-1.66 5 -2.32 5 -3 5 C-2 2 -2 2 0 0 Z " fill="#CFCECF" transform="translate(502,508)"/>
<path d="M0 0 C0.144375 0.61875 0.28875 1.2375 0.4375 1.875 C0.93152225 4.03258322 0.93152225 4.03258322 2 6 C-0.31 6.66 -2.62 7.32 -5 8 C-3.62845496 5.04590299 -2.01136276 2.55991624 0 0 Z " fill="#404040" transform="translate(229,304)"/>
<path d="M0 0 C0 3.94042779 -1.46184088 5.08858219 -4 8 C-4.66 8.66 -5.32 9.32 -6 10 C-6.66 9.34 -7.32 8.68 -8 8 C-5.36 5.36 -2.72 2.72 0 0 Z " fill="#DBDBDB" transform="translate(162,178)"/>
<path d="M0 0 C3.05882701 1.52941351 3.68951234 3.94219546 5 7 C4.67 7.66 4.34 8.32 4 9 C2.68 8.34 1.36 7.68 0 7 C0 4.69 0 2.38 0 0 Z " fill="#C7C7C7" transform="translate(82,677)"/>
<path d="M0 0 C0.93065133 2.60582371 1.14917407 3.64198224 0.0625 6.25 C-0.4634375 7.11625 -0.4634375 7.11625 -1 8 C-1.99 5.69 -2.98 3.38 -4 1 C-2 0 -2 0 0 0 Z " fill="#101010" transform="translate(76,656)"/>
<path d="M0 0 C1.89213369 2.38573379 3.02391783 4.07175348 4 7 C3.34 7.66 2.68 8.32 2 9 C1.01 9 0.02 9 -1 9 C-0.67 6.03 -0.34 3.06 0 0 Z " fill="#EBEBEB" transform="translate(474,579)"/>
<path d="M0 0 C1.32 0 2.64 0 4 0 C3.25 5.75 3.25 5.75 1 8 C0.67 5.36 0.34 2.72 0 0 Z " fill="#121212" transform="translate(42,568)"/>
<path d="M0 0 C0.33 0.99 0.66 1.98 1 3 C-0.9375 5.6875 -0.9375 5.6875 -3 8 C-3.66 7.67 -4.32 7.34 -5 7 C-5 6.34 -5 5.68 -5 5 C-4.34 5 -3.68 5 -3 5 C-2.67 4.01 -2.34 3.02 -2 2 C-1.34 1.34 -0.68 0.68 0 0 Z " fill="#E9E9E9" transform="translate(93,229)"/>
<path d="M0 0 C2.6875 1.9375 2.6875 1.9375 5 4 C4.67 4.66 4.34 5.32 4 6 C1.11562221 4.70700306 -0.87219421 3.34058637 -3 1 C-2.01 0.67 -1.02 0.34 0 0 Z " fill="#D7D7D7" transform="translate(544,130)"/>
<path d="M0 0 C0 2.31 0 4.62 0 7 C-0.33 6.01 -0.66 5.02 -1 4 C-3.01508358 3.26676204 -3.01508358 3.26676204 -5 3 C-5 2.34 -5 1.68 -5 1 C-3 0 -3 0 0 0 Z " fill="#E3E3E3" transform="translate(101,944)"/>
<path d="M0 0 C0.33 0.99 0.66 1.98 1 3 C1.99 3.33 2.98 3.66 4 4 C4 4.66 4 5.32 4 6 C2.68 6.33 1.36 6.66 0 7 C-0.93423645 3.98968256 -1.04449911 3.13349732 0 0 Z " fill="#E5E5E5" transform="translate(94,945)"/>
<path d="M0 0 C0 1.98 0 3.96 0 6 C-0.99 6.33 -1.98 6.66 -3 7 C-3 5.02 -3 3.04 -3 1 C-1 0 -1 0 0 0 Z " fill="#F3F3F3" transform="translate(123,944)"/>
<path d="M0 0 C0.99 0.33 1.98 0.66 3 1 C-0.75 6.875 -0.75 6.875 -3 8 C-1.125 2.25 -1.125 2.25 0 0 Z " fill="#2C2C2C" transform="translate(618,664)"/>
<path d="M0 0 C0.68707555 2.49064888 1 4.37886292 1 7 C0.01 7 -0.98 7 -2 7 C-2.33 7.99 -2.66 8.98 -3 10 C-2.39009109 6.44219804 -1.4216319 3.3171411 0 0 Z " fill="#B3B3B3" transform="translate(662,622)"/>
<path d="M0 0 C0.33 0.66 0.66 1.32 1 2 C0.06553465 4.03144641 -0.93224776 6.03533587 -2 8 C-2.99 7.67 -3.98 7.34 -5 7 C-4.34 5.68 -3.68 4.36 -3 3 C-2.34 3.33 -1.68 3.66 -1 4 C-0.67 2.68 -0.34 1.36 0 0 Z " fill="#373737" transform="translate(85,293)"/>
<path d="M0 0 C0.33 0.99 0.66 1.98 1 3 C-0.65 4.65 -2.3 6.3 -4 8 C-4 6.02 -4 4.04 -4 2 C-2.68 1.34 -1.36 0.68 0 0 Z " fill="#F7F7F7" transform="translate(93,226)"/>
<path d="M0 0 C-0.66 1.32 -1.32 2.64 -2 4 C-2.99 4 -3.98 4 -5 4 C-5 3.34 -5 2.68 -5 2 C-5.99 1.67 -6.98 1.34 -8 1 C-3.375 -1.125 -3.375 -1.125 0 0 Z " fill="#C6C6C6" transform="translate(264,116)"/>
<path d="M0 0 C0.99 0 1.98 0 3 0 C3 0.66 3 1.32 3 2 C3.99 2.33 4.98 2.66 6 3 C6 3.33 6 3.66 6 4 C4.02 4 2.04 4 0 4 C0 2.68 0 1.36 0 0 Z " fill="#E2E2E2" transform="translate(652,947)"/>
<path d="M0 0 C1.5 1.25 1.5 1.25 3 3 C3 4.32 3 5.64 3 7 C2.01 7.33 1.02 7.66 0 8 C0 5.36 0 2.72 0 0 Z " fill="#F0F0F0" transform="translate(109,944)"/>
<path d="M0 0 C2.97 0.495 2.97 0.495 6 1 C6 1.99 6 2.98 6 4 C3.03 3.505 3.03 3.505 0 3 C0 2.01 0 1.02 0 0 Z " fill="#E5E5E5" transform="translate(288,809)"/>
<path d="M0 0 C2.3125 0.1875 2.3125 0.1875 5 1 C6.8125 3.5625 6.8125 3.5625 8 6 C4.63408134 4.55746343 2.48952921 2.66735273 0 0 Z " fill="#C4C4C4" transform="translate(184,761)"/>
<path d="M0 0 C0.66 0.33 1.32 0.66 2 1 C2 1.99 2 2.98 2 4 C0.02 4.99 0.02 4.99 -2 6 C-2 5.34 -2 4.68 -2 4 C-2.66 3.67 -3.32 3.34 -4 3 C-2.68 2.01 -1.36 1.02 0 0 Z " fill="#D3D3D3" transform="translate(436,665)"/>
<path d="M0 0 C1 4 1 4 1 8 C-0.32 8.33 -1.64 8.66 -3 9 C-2.01 6.03 -1.02 3.06 0 0 Z " fill="#BEBEBE" transform="translate(654,642)"/>
<path d="M0 0 C0.33 0.66 0.66 1.32 1 2 C1.66 2 2.32 2 3 2 C2.75 3.875 2.75 3.875 2 6 C-0.0625 7.25 -0.0625 7.25 -2 8 C-1.34 5.36 -0.68 2.72 0 0 Z " fill="#E2E2E2" transform="translate(668,604)"/>
<path d="M0 0 C0.99 0.33 1.98 0.66 3 1 C1.88820837 4.33537489 0.52588702 5.63707344 -2 8 C-1.125 2.25 -1.125 2.25 0 0 Z " fill="#BBBBBB" transform="translate(676,576)"/>
<path d="M0 0 C1.9375 0.75 1.9375 0.75 4 2 C4.75 4.125 4.75 4.125 5 6 C4.34 6 3.68 6 3 6 C2.67 6.66 2.34 7.32 2 8 C1.34 5.36 0.68 2.72 0 0 Z " fill="#171717" transform="translate(203,574)"/>
<path d="M0 0 C0.33 1.32 0.66 2.64 1 4 C1.66 4 2.32 4 3 4 C2.67 5.32 2.34 6.64 2 8 C1.67 7.34 1.34 6.68 1 6 C0.34 6.66 -0.32 7.32 -1 8 C-1.125 2.25 -1.125 2.25 0 0 Z " fill="#B5B5B5" transform="translate(524,520)"/>
<path d="M0 0 C0.6875 1.8125 0.6875 1.8125 1 4 C-0.3125 5.75 -0.3125 5.75 -2 7 C-2.66 7 -3.32 7 -4 7 C-3.43628586 3.73045798 -2.50037734 2.17424117 0 0 Z " fill="#191919" transform="translate(198,369)"/>
<path d="M0 0 C0.33 0.66 0.66 1.32 1 2 C1.66 2.33 2.32 2.66 3 3 C2.01 3.495 2.01 3.495 1 4 C1.33 4.99 1.66 5.98 2 7 C0.68 7.33 -0.64 7.66 -2 8 C-1.34 5.36 -0.68 2.72 0 0 Z " fill="#202020" transform="translate(53,317)"/>
<path d="M0 0 C0.66 1.32 1.32 2.64 2 4 C-0.64738916 5.4606285 -1.89448334 6 -5 6 C-3.35 4.02 -1.7 2.04 0 0 Z " fill="#CBCBCB" transform="translate(253,312)"/>
<path d="M0 0 C0.33 0 0.66 0 1 0 C1.25 2.25 1.25 2.25 1 5 C-1 7.3125 -1 7.3125 -3 9 C-3.66 8.67 -4.32 8.34 -5 8 C-4.19185349 6.66402348 -3.37836819 5.331275 -2.5625 4 C-2.11003906 3.2575 -1.65757813 2.515 -1.19140625 1.75 C-0.79824219 1.1725 -0.40507813 0.595 0 0 Z " fill="#2C2C2C" transform="translate(93,232)"/>
</svg>
